<?xml version="1.0" standalone="no"?>
<!DOCTYPE svg PUBLIC "-//W3C//DTD SVG 1.1//EN" "http://www.w3.org/Graphics/SVG/1.1/DTD/svg11.dtd" >
<svg xmlns="http://www.w3.org/2000/svg">
<metadata>
This is a custom SVG webfont generated by Fontspring.
</metadata>
<defs>
<font id="webfontRCkBYOjs" horiz-adv-x="575" >
<font-face units-per-em="2048" ascent="1743" descent="-305" />
<missing-glyph horiz-adv-x="278" />
<glyph unicode=" "  horiz-adv-x="278" />
<glyph unicode="&#x09;" horiz-adv-x="278" />
<glyph unicode="&#xa0;" horiz-adv-x="278" />
<glyph unicode="!" horiz-adv-x="354" d="M274 0h-194v223h194v-223zM236 326h-119l-37 608v752h194v-748z" />
<glyph unicode="&#x22;" horiz-adv-x="565" d="M195 1219h-97l-37 278v189h170v-189zM467 1219h-96l-37 278v189h170v-189z" />
<glyph unicode="#" horiz-adv-x="821" d="M485 0h-125l95 594h-170l-95 -594h-122l92 594h-119v162h143l35 221h-143v162h170l84 547h129l-88 -547h168l86 547h127l-88 -547h116v-162h-141l-35 -221h137v-162h-163zM479 756l35 221h-170l-35 -221h170z" />
<glyph unicode="$" horiz-adv-x="587" d="M324 -106h-64v126q-201 20 -201 277v321h144v-323q0 -92 63 -105v558l-69 71q-84 86 -111 149.5t-27 178.5v242q0 125 52.5 194.5t148.5 79.5v117h64v-117q197 -18 196 -274v-271h-139v285q0 76 -66 92v-545l74 -67q84 -76 110.5 -146.5t26.5 -216.5v-223 q0 -256 -202 -279v-124zM266 991v504q-63 -12 -63 -92v-260q0 -82 63 -152zM377 281v206q0 82 -12.5 129.5t-49.5 90.5v-517q62 11 62 91z" />
<glyph unicode="%" horiz-adv-x="991" d="M63 997v576q0 143 142 143q139 0 139 -143v-576q0 -143 -139 -143q-142 0 -142 143zM233 995v580q0 31 -28 31q-31 0 -31 -31v-580q0 -31 31 -30q28 -1 28 30zM184 0h-127l752 1686h125zM645 113v575q0 143 141 143q139 0 140 -143v-575q0 -143 -140 -144 q-141 1 -141 144zM815 111v579q0 31 -29 31q-31 0 -30 -31v-579q0 -31 30 -31q29 0 29 31z" />
<glyph unicode="&#x26;" horiz-adv-x="778" d="M745 195v-181q-39 -23 -102 -22q-68 0 -111 49q-61 -59 -194 -59q-166 0 -226.5 82.5t-60.5 267.5v121q0 133 30 225t126 219l-41 115q-59 162 -60 315v100q0 147 54.5 211t177.5 64q221 0 221 -270v-125q0 -106 -39 -200.5t-133 -234.5l176 -497q25 84 25 192v58h145 v-66q0 -227 -88 -379q14 -10 33 -10q44 0 67 25zM461 190l-180 515q-45 -82 -45 -244v-125q0 -92 26.5 -135t91.5 -43q74 -1 107 32zM303 1106l19 -57q86 127 86 288v60q0 121 -68 121q-72 0 -72 -99v-65q0 -131 35 -248z" />
<glyph unicode="'" horiz-adv-x="292" d="M195 1219h-97l-37 278v189h170v-189z" />
<glyph unicode="(" horiz-adv-x="524" d="M483 -164h-18q-160 0 -237.5 85t-77.5 269v1305q0 184 77.5 269t237.5 85h18v-137h-18q-180 0 -180 -217v-1305q0 -217 180 -217h18v-137z" />
<glyph unicode=")" horiz-adv-x="524" d="M168 -164h-18v137h18q180 0 180 217v1305q0 217 -180 217h-18v137h18q160 0 237.5 -85t77.5 -269v-1305q0 -184 -77.5 -269t-237.5 -85z" />
<glyph unicode="*" horiz-adv-x="667" d="M557 1174l-92 -68l-133 205l-129 -205l-92 68l151 186l-233 61l34 109l226 -86l-15 242h117l-14 -242l225 90l35 -111l-234 -63z" />
<glyph unicode="+" horiz-adv-x="954" d="M549 453h-141v335h-334v142h334v334h141v-334h336v-142h-336v-335z" />
<glyph unicode="," horiz-adv-x="299" d="M104 -125h-20v78h18q39 0 39 43v49h-80v211h177v-248q-1 -133 -134 -133z" />
<glyph unicode="-" horiz-adv-x="372" d="M352 776h-327v146h327v-146z" />
<glyph unicode="." horiz-adv-x="296" d="M238 0h-177v256h177v-256z" />
<glyph unicode="/" horiz-adv-x="495" d="M147 0h-137l336 1686h139z" />
<glyph unicode="0" horiz-adv-x="675" d="M61 268v1149q0 287 276.5 287t276.5 -287v-1149q0 -287 -276.5 -287t-276.5 287zM428 264v1157q0 96 -90 97q-88 0 -88 -97v-1157q0 -96 88 -96q90 0 90 96z" />
<glyph unicode="1" horiz-adv-x="389" d="M311 0h-186v1376h-92v185h43q68 0 67 79v46h168v-1686z" />
<glyph unicode="2" horiz-adv-x="636" d="M588 0h-537v307q0 156 30 248t128 233q121 172 154.5 250t33.5 195v180q0 100 -80 100q-78 0 -77 -100v-295h-189v293q0 154 64.5 223.5t201.5 69.5q270 0 271 -293v-197q0 -223 -176 -471q-111 -156 -140.5 -235.5t-29.5 -200.5v-119h346v-188z" />
<glyph unicode="3" horiz-adv-x="638" d="M401 268v404q0 51 -18 74.5t-64 23.5h-83v178h92q41 0 56 23.5t15 75.5v368q0 51 -18.5 74.5t-61.5 23.5t-60 -23.5t-17 -74.5v-299h-187v297q0 152 63.5 221.5t201 69.5t200 -69.5t62.5 -223.5v-373q0 -131 -109 -180q113 -33 113 -182v-408q0 -133 -66.5 -209.5 t-200.5 -76.5q-131 0 -199.5 76.5t-68.5 207.5v332h191v-330q0 -98 77 -98q82 0 82 98z" />
<glyph unicode="4" horiz-adv-x="657" d="M184 514h195q0 268 10 688zM555 0h-176v336h-363v164l361 1186h178v-1172h82v-178h-82v-336z" />
<glyph unicode="5" horiz-adv-x="649" d="M410 268v545q0 88 -86 88q-82 0 -99 -90l-164 6l21 869h500v-191h-328l-18 -494q51 68 161 68q195 0 195 -260v-545q0 -143 -63.5 -212.5t-198.5 -69.5q-266 0 -267 282v354h185v-352q0 -96 82 -96q80 0 80 98z" />
<glyph unicode="6" horiz-adv-x="657" d="M410 268v463q0 76 -16.5 111t-63.5 35q-70 0 -80 -68v-541q0 -98 80 -98t80 98zM600 795v-527q0 -135 -68.5 -210.5t-201.5 -75.5t-202 75.5t-69 210.5v1149q0 135 69 211t202 76q260 0 260 -287v-291h-182v291q0 96 -78 96q-80 0 -80 -96v-426q51 68 147 68 q106 0 154.5 -62.5t48.5 -201.5z" />
<glyph unicode="7" horiz-adv-x="593" d="M315 0h-188q0 328 33 612.5t82 463.5t83.5 274.5t63.5 144.5h-362v191h540v-177q-131 -295 -190.5 -660.5t-61.5 -848.5z" />
<glyph unicode="8" horiz-adv-x="647" d="M590 672v-408q0 -283 -268 -282q-266 0 -267 282v408q0 156 113 200q-98 51 -98 187v356q0 289 251.5 289t251.5 -289v-356q0 -137 -96 -187q113 -44 113 -200zM403 266v420q0 86 -81 86q-80 0 -80 -86v-420q0 -96 80 -96q81 0 81 96zM401 1034v381q0 53 -17 75.5 t-62 22.5q-43 0 -60.5 -22.5t-17.5 -75.5v-381q0 -86 78 -86q79 0 79 86z" />
<glyph unicode="9" horiz-adv-x="655" d="M403 911v506q0 96 -79.5 96t-79.5 -96v-481q0 -94 80 -94q71 -1 79 69zM403 268v453q-47 -68 -145 -68q-104 0 -152.5 61.5t-48.5 203.5v499q0 139 68 213t199 74q133 0 201.5 -74t68.5 -211v-1151q0 -135 -68.5 -210.5t-201.5 -75.5q-125 0 -195 76.5t-70 209.5v291h185 v-291q0 -98 79.5 -98t79.5 98z" />
<glyph unicode=":" horiz-adv-x="296" d="M238 750h-177v254h177v-254zM238 0h-177v256h177v-256z" />
<glyph unicode=";" horiz-adv-x="299" d="M238 750h-177v254h177v-254zM104 -125h-20v78h18q39 0 39 43v49h-80v211h177v-248q-1 -133 -134 -133z" />
<glyph unicode="&#x3c;" horiz-adv-x="954" d="M885 522l-811 250v172l811 248v-141l-668 -189l668 -198v-142z" />
<glyph unicode="=" horiz-adv-x="954" d="M885 979h-811v143h811v-143zM885 596h-811v143h811v-143z" />
<glyph unicode="&#x3e;" horiz-adv-x="954" d="M885 772l-811 -250v142l667 198l-667 189v141l811 -248v-172z" />
<glyph unicode="?" horiz-adv-x="614" d="M371 383h-176v227q0 123 21.5 193.5t78.5 138.5q61 72 75.5 117t14.5 168v188q0 98 -78 98q-80 0 -80 -96v-299h-180v295q0 150 62.5 220.5t197.5 70.5t199.5 -71.5t64.5 -221.5v-184q0 -219 -102 -340q-70 -80 -84 -122t-14 -151v-231zM371 0h-176v256h176v-256z" />
<glyph unicode="@" horiz-adv-x="1064" d="M881 129h123q4 -20 4 -41q4 -299 -473 -299q-233 0 -355.5 117t-122.5 393v715q0 252 113 361.5t360 109.5q236 0 345.5 -104.5t109.5 -327.5v-621q0 -104 -54 -164.5t-140 -60.5q-121 0 -160 80q-25 -72 -125 -72q-164 0 -164 191v446q0 117 42 163t122 46q86 0 112 -74 q0 27 5 64h92v-660q14 -61 69 -61q74 0 74 96v631q0 281 -328 280q-176 0 -251.5 -79.5t-75.5 -243.5v-719q0 -193 87 -272.5t267 -79.5q322 0 326 157q0 21 -2 29zM602 383v483q-14 59 -61 60q-74 0 -74 -80v-424q0 -88 74 -88q45 0 61 49z" />
<glyph unicode="A" horiz-adv-x="690" d="M666 0h-191l-31 260h-206q-12 -88 -33 -260h-185l220 1686h219zM256 434h168q-55 483 -82 766q-37 -391 -86 -766z" />
<glyph unicode="B" horiz-adv-x="669" d="M424 1032v367q0 51 -18.5 73.5t-59.5 22.5h-84v-551h86q76 0 76 88zM428 287v393q0 53 -18.5 75.5t-61.5 22.5h-86v-590h84q82 1 82 99zM346 0h-272v1686h272q135 0 194.5 -71t59.5 -222v-342q0 -145 -90 -179q111 -27 111 -176v-411q0 -147 -68 -216t-207 -69z" />
<glyph unicode="C" horiz-adv-x="634" d="M412 268v350h172v-348q0 -147 -60.5 -217.5t-189.5 -70.5q-272 0 -273 284v1147q0 291 273 291q250 0 250 -287v-299h-172v299q0 96 -78 96q-80 0 -80 -96v-1149q0 -98 80 -98q78 0 78 98z" />
<glyph unicode="D" horiz-adv-x="671" d="M422 287v1110q0 98 -82 98h-78v-1307h78q82 1 82 99zM340 0h-266v1686h266q133 0 201.5 -76t68.5 -213v-1110q0 -287 -270 -287z" />
<glyph unicode="E" d="M539 0h-465v1686h454v-191h-266v-541h178v-190h-178v-576h277v-188z" />
<glyph unicode="F" horiz-adv-x="555" d="M262 0h-188v1686h465v-191h-277v-549h180v-190h-180v-756z" />
<glyph unicode="G" horiz-adv-x="663" d="M604 -10h-22l-62 80q-55 -88 -203 -88q-256 0 -256 286v1147q0 139 69 214t202 75q260 0 260 -289v-297h-170v299q0 96 -90 96q-82 0 -82 -96v-1149q0 -98 80 -98q86 0 92 86v362h-100v181h282v-809z" />
<glyph unicode="H" horiz-adv-x="684" d="M610 0h-188v764h-160v-764h-188v1686h188v-734h160v734h188v-1686z" />
<glyph unicode="I" horiz-adv-x="344" d="M266 0h-188v1686h188v-1686z" />
<glyph unicode="J" horiz-adv-x="444" d="M18 0v188q41 -10 93 -10q78 0 77 103v1405h191v-1405q0 -293 -268 -293q-48 0 -93 12z" />
<glyph unicode="K" horiz-adv-x="718" d="M713 0h-217l-238 815q4 -135 4 -461v-354h-190v1686h190v-349q0 -266 -4 -368l231 717h203l-270 -760z" />
<glyph unicode="L" horiz-adv-x="557" d="M539 0h-465v1686h188v-1498h277v-188z" />
<glyph unicode="M" horiz-adv-x="931" d="M862 0h-174v492q0 367 8 659l-151 -1151h-164l-148 1151q8 -438 9 -659v-492h-174v1686h251q55 -518 142 -1246q102 858 143 1246h258v-1686z" />
<glyph unicode="N" horiz-adv-x="727" d="M657 0h-184l-248 1130q4 -231 4 -694v-436h-161v1686h221q123 -692 211 -1145q-4 193 -4 571v574h161v-1686z" />
<glyph unicode="O" horiz-adv-x="661" d="M61 268v1149q0 287 269 287q270 0 270 -287v-1149q0 -287 -270 -286q-269 -1 -269 286zM412 268v1149q0 96 -82 96q-80 0 -80 -96v-1149q0 -98 80 -98q82 0 82 98z" />
<glyph unicode="P" horiz-adv-x="663" d="M446 1098v284q0 113 -106 113h-78v-510h80q104 0 104 113zM262 0h-188v1686h266q150 0 221.5 -74t71.5 -232v-276q0 -158 -70.5 -230.5t-220.5 -72.5h-80v-801z" />
<glyph unicode="Q" horiz-adv-x="661" d="M600 -4v-148q-45 -45 -139 -45q-98 0 -151.5 62.5t-53.5 150.5q-197 37 -197 281v1120q0 287 270.5 287t270.5 -287v-1120q0 -258 -217 -285q16 -59 109 -59q65 0 108 43zM410 287v1130q0 96 -80 96t-80 -96v-1130q0 -96 80 -96t80 96z" />
<glyph unicode="R" horiz-adv-x="679" d="M438 1038v305q0 84 -20.5 118t-83.5 34h-72v-565h74q102 -1 102 108zM645 0h-207q-57 502 -98 758h-78v-758h-190v1686h262q152 0 224.5 -71t72.5 -233v-342q0 -180 -111 -243q51 -281 125 -797z" />
<glyph unicode="S" horiz-adv-x="638" d="M397 260v240q0 94 -59 170q-20 27 -104 125t-132 166q-51 72 -51 213v251q0 279 268 279q139 0 200 -67.5t61 -211.5v-307h-177v305q0 90 -79.5 90t-79.5 -88v-249q0 -72 32 -115q31 -41 114 -137.5t124 -153.5q72 -100 72 -268v-242q0 -279 -267 -278q-268 0 -268 278 v358h182v-358q0 -90 80 -90q84 0 84 90z" />
<glyph unicode="T" horiz-adv-x="581" d="M385 0h-188v1495h-177v191h541v-191h-176v-1495z" />
<glyph unicode="U" horiz-adv-x="671" d="M416 268v1418h188v-1418q0 -287 -268 -286.5t-268 286.5v1418h188v-1418q0 -98 80 -98t80 98z" />
<glyph unicode="V" horiz-adv-x="696" d="M467 0h-252l-192 1686h196q20 -225 52 -547l53 -533q20 -211 22 -278q4 66 27 279l56 530q34 315 56 549h189z" />
<glyph unicode="W" horiz-adv-x="1089" d="M866 0h-223q-102 1081 -104 1167q-2 -41 -117 -1167h-225l-174 1686h196q18 -254 44 -550l42 -480q16 -183 19 -220l133 1250h176l51 -547l45 -484q16 -176 19 -219q2 41 20 220l48 481l52 549h199z" />
<glyph unicode="X" horiz-adv-x="700" d="M692 0h-203q-27 141 -83 400t-62 302q-4 -39 -28 -150l-59 -278q-36 -166 -56 -274h-193l232 901l-195 785h203q14 -86 40 -218l44 -225q18 -94 20 -125q4 33 46 244t61 324h196l-198 -779z" />
<glyph unicode="Y" horiz-adv-x="684" d="M434 0h-192v737l-226 949h199q27 -156 77 -396.5t54 -269.5q4 31 57.5 271.5t79.5 394.5h185l-234 -949v-737z" />
<glyph unicode="Z" horiz-adv-x="632" d="M586 0h-537v193l348 1308h-334v185h523v-170l-340 -1323h340v-193z" />
<glyph unicode="[" horiz-adv-x="512" d="M471 -164h-321v2013h321v-137h-186v-1739h186v-137z" />
<glyph unicode="\" horiz-adv-x="495" d="M485 0h-137l-338 1686h140z" />
<glyph unicode="]" horiz-adv-x="512" d="M471 -164h-321v137h186v1739h-186v137h321v-2013z" />
<glyph unicode="^" horiz-adv-x="653" d="M580 1077h-136l-112 461l-123 -461h-135l168 609h172z" />
<glyph unicode="_" horiz-adv-x="620" d="M623 -221h-625v127h625v-127z" />
<glyph unicode="`" horiz-adv-x="591" d="M518 1343h-164l-280 330h217z" />
<glyph unicode="a" horiz-adv-x="583" d="M522 0h-155q-8 25 -9 70q-49 -88 -141 -88q-174 0 -174 200v187q0 86 21.5 148.5t70.5 106.5t91 67.5t122 58.5v286q0 80 -67 80q-41 0 -55.5 -19.5t-14.5 -60.5v-266h-150v268q0 250 224 250q227 0 227 -250v-929q0 -74 10 -109zM348 203v409q-49 -18 -78.5 -39.5 t-42 -58.5t-14.5 -65.5t-2 -92.5v-131q0 -78 70 -78q49 1 67 56z" />
<glyph unicode="b" horiz-adv-x="622" d="M391 250v786q0 74 -69 74q-55 0 -78 -55v-828q23 -57 78 -57q69 0 69 80zM160 0h-86v1686h170v-457q49 59 133 59q94 0 139 -56t45 -177v-803q0 -264 -215 -264q-104 0 -160 94q-3 -35 -26 -82z" />
<glyph unicode="c" horiz-adv-x="581" d="M367 240v278h159v-282q0 -119 -57 -186.5t-172 -67.5q-117 0 -176.5 69.5t-59.5 188.5v786q0 121 59.5 191.5t176.5 70.5q115 0 170 -69.5t55 -190.5v-274h-155v278q0 80 -70 80t-70 -82v-790q0 -84 70 -84t70 84z" />
<glyph unicode="d" horiz-adv-x="622" d="M379 227v832q-23 55 -78 55q-70 0 -70 -76v-788q0 -80 70 -80q55 0 78 57zM549 0h-143q-6 37 -7 82q-41 -94 -159 -94q-178 0 -179 239v828q0 121 45.5 177t139.5 56q84 0 133 -59v457h170v-1686z" />
<glyph unicode="e" d="M354 733v295q0 82 -69 82q-66 0 -66 -82v-295h135zM354 240v276h160v-278q0 -256 -229 -256q-223 0 -224 256v790q0 260 224 260q229 0 229 -260v-418h-295v-372q0 -82 66 -82q69 0 69 84z" />
<glyph unicode="f" horiz-adv-x="391" d="M250 0h-170v1118h-62v150h62v176q0 252 199 252q53 0 94 -13v-145q-10 4 -41 4q-82 0 -82 -102v-172h119v-150h-119v-1118z" />
<glyph unicode="g" horiz-adv-x="622" d="M385 -74v193q-49 -59 -141 -60q-94 0 -138.5 55.5t-44.5 176.5v749q0 240 179 240q109 0 159 -94q0 45 7 82h143v-1334q0 -240 -236 -239q-129 0 -182 60.5t-53 178.5v52h153v-60q0 -82 78 -82q76 0 76 82zM385 279v761q-25 55 -84 56q-72 0 -72 -74v-723q0 -76 72 -76 q57 1 84 56z" />
<glyph unicode="h" horiz-adv-x="620" d="M555 0h-172v1044q0 76 -61 76q-55 0 -78 -49v-1071h-170v1686h170v-469q59 72 151 71q160 0 160 -233v-1055z" />
<glyph unicode="i" horiz-adv-x="323" d="M248 1430h-170v256h170v-256zM248 0h-170v1268h170v-1268z" />
<glyph unicode="j" horiz-adv-x="352" d="M-49 -287v170q27 -8 76 -8q78 0 77 98v1295h170v-1295q0 -268 -247 -268q-31 0 -76 8zM274 1430h-170v256h170v-256z" />
<glyph unicode="k" horiz-adv-x="614" d="M602 0h-186q-139 494 -178 643q2 -111 2 -340v-303h-168v1686h168v-664q0 -199 -2 -293q84 266 182 539h176l-201 -553z" />
<glyph unicode="l" horiz-adv-x="317" d="M244 0h-170v1686h170v-1686z" />
<glyph unicode="m" horiz-adv-x="905" d="M838 0h-170v1049q0 72 -56 71q-45 0 -71 -49v-1071h-170v1049q0 72 -58 71q-47 0 -69 -49v-1071h-170v1268h143q6 -37 6 -80q57 100 162 100q102 0 133 -94q57 94 166 94q154 0 154 -237v-1051z" />
<glyph unicode="n" horiz-adv-x="620" d="M555 0h-172v1044q0 76 -61 76q-55 0 -78 -49v-1071h-170v1268h143q6 -37 6 -82q61 102 170 102q162 0 162 -233v-1055z" />
<glyph unicode="o" horiz-adv-x="595" d="M61 233v801q0 254 238 254q117 0 177.5 -65.5t60.5 -188.5v-801q0 -123 -60.5 -187t-177.5 -64q-238 -1 -238 251zM369 240v788q0 84 -70 84q-72 0 -72 -84v-790q0 -82 72 -82q70 0 70 84z" />
<glyph unicode="p" horiz-adv-x="622" d="M391 229v789q0 80 -69 80q-55 0 -78 -56v-833q23 -55 78 -55q69 -1 69 75zM244 -285h-170v1553h143q6 -39 6 -82q41 94 160 94q178 0 178 -240v-827q0 -121 -45 -176t-139 -55q-86 0 -133 57v-324z" />
<glyph unicode="q" horiz-adv-x="622" d="M379 209v838q-23 55 -78 55q-70 0 -70 -80v-793q0 -76 70 -75q55 0 78 55zM549 -285h-170v324q-47 -57 -133 -57q-94 0 -139.5 55t-45.5 176v827q0 240 179 240q117 0 159 -94q0 43 7 82h143v-1553z" />
<glyph unicode="r" horiz-adv-x="423" d="M244 0h-170v1268h143q6 -37 6 -78q45 92 139 92q18 0 39 -8v-191q-23 14 -65 15q-68 0 -92 -56v-1042z" />
<glyph unicode="s" horiz-adv-x="571" d="M516 340v-125q0 -123 -59.5 -178t-182.5 -55q-223 0 -223 241v201h156v-197q0 -78 72 -77q68 0 67 77v138q0 66 -39 116q-33 43 -101.5 118t-99.5 114q-55 72 -55 205v120q0 133 57.5 191.5t172.5 58.5q129 0 179 -58.5t50 -191.5v-200h-156v200q0 78 -69 78 q-66 0 -66 -78v-139q0 -59 33 -102q31 -41 98.5 -111t95.5 -104q41 -53 55.5 -105.5t14.5 -136.5z" />
<glyph unicode="t" horiz-adv-x="391" d="M371 131v-141q-23 -8 -64 -8q-113 0 -171 68.5t-58 193.5v874h-62v150h62v401h172v-401h117v-150h-117v-872q0 -117 94 -117q19 0 27 2z" />
<glyph unicode="u" horiz-adv-x="616" d="M545 0h-146q-6 37 -6 80q-57 -92 -166 -92q-76 0 -117.5 57t-41.5 160v1063h170v-1037q0 -76 59 -75q53 0 76 49v1063h172v-1268z" />
<glyph unicode="v" horiz-adv-x="569" d="M365 0h-170l-177 1268h172l39 -355l32 -291l20 -194q12 109 46 379l56 461h164z" />
<glyph unicode="w" horiz-adv-x="864" d="M707 0h-201l-80 879l-88 -879h-199l-114 1268h157l68 -934l100 934h158l88 -934l84 934h158z" />
<glyph unicode="x" horiz-adv-x="585" d="M573 0h-176q-98 485 -108 561q-23 -166 -107 -561h-170l168 678l-143 590h178q57 -285 80 -451q25 182 82 451h170l-144 -588z" />
<glyph unicode="y" horiz-adv-x="569" d="M37 -285v170q27 -8 69 -8q39 0 57.5 33t29.5 102l4 27l-179 1229h179q49 -455 86 -889q43 430 100 889h164l-172 -1221q-31 -186 -80 -264t-182 -78q-25 0 -76 10z" />
<glyph unicode="z" horiz-adv-x="526" d="M477 0h-428v162l268 938h-264v168h426v-158l-260 -936h258v-174z" />
<glyph unicode="{" horiz-adv-x="559" d="M524 -164h-16q-291 0 -291 281v432q0 61 -31 98l-155 197l155 194q31 37 31 99v430q0 283 291 282h16v-137h-14q-82 0 -120 -36t-38 -115v-416q0 -109 -59 -182l-96 -119l96 -121q59 -74 59 -184v-414q0 -80 38 -116t120 -36h14v-137z" />
<glyph unicode="|" horiz-adv-x="413" d="M274 -164h-137v2013h137v-2013z" />
<glyph unicode="}" horiz-adv-x="559" d="M47 -164h-16v137h14q82 0 120 36t38 116v414q0 111 59 184l96 121l-96 119q-59 74 -59 182v416q0 80 -38 115.5t-120 35.5h-14v137h16q291 0 291 -282v-430q0 -61 31 -99l155 -194l-155 -197q-31 -37 -31 -98v-432q0 -281 -291 -281z" />
<glyph unicode="~" horiz-adv-x="956" d="M887 987v-168q-94 -76 -232 -76q-68 0 -189.5 47.5t-180.5 47.5q-123 0 -211 -105v168q78 78 205 78q84 0 206.5 -47t176.5 -47q129 0 225 102z" />
<glyph unicode="&#xa1;" horiz-adv-x="354" d="M80 1686h194v-224h-194v224zM119 1360h119l36 -608v-752h-194v748z" />
<glyph unicode="&#xa2;" horiz-adv-x="577" d="M330 0h-64v182q-100 8 -152.5 78t-52.5 180v781q0 113 52.5 181t152.5 77v207h64v-207q193 -20 192 -256v-279h-137v281q0 31 -17.5 53t-43.5 25v-945q61 6 61 82v271h141v-275q0 -233 -196 -252v-184zM274 360v943q-63 -10 -63 -78v-785q0 -76 63 -80z" />
<glyph unicode="&#xa3;" horiz-adv-x="587" d="M549 207v-162q-43 -61 -135 -61q-53 0 -130 37.5t-110 37.5q-72 0 -127 -77h-8v174q39 53 102 61q14 154 15 399v328h-111v143h111v293q0 156 65.5 240t188.5 84q70 0 104 -14v-174q-37 14 -68 14q-127 0 -127 -148v-295h195v-143h-195v-330q0 -250 -24 -430 q8 -4 33.5 -15t47 -17.5t44.5 -6.5q80 0 121 62h8z" />
<glyph unicode="&#xa4;" horiz-adv-x="1005" d="M870 326l-129 139q-115 -78 -239 -78q-133 0 -238 78l-133 -139l-100 102q6 8 36 37l62 60l37 36q-78 104 -78 240q0 129 78 239l-133 129l100 105l129 -137q102 80 240 80q135 0 241 -82l125 139l103 -105l-133 -129q80 -104 80 -239q0 -133 -80 -240l135 -133zM762 801 q0 106 -76 182t-184.5 76t-183 -75t-74.5 -183.5t74.5 -183t183 -74.5t184.5 74.5t76 183.5z" />
<glyph unicode="&#xa5;" horiz-adv-x="700" d="M657 178h-223v-178h-178v178h-223v148h223v174h-223v147h223v84l-233 955h200l131 -666l135 666h187l-242 -955v-84h223v-147h-223v-174h223v-148z" />
<glyph unicode="&#xa6;" horiz-adv-x="413" d="M274 1024h-137v825h137v-825zM274 -164h-137v826h137v-826z" />
<glyph unicode="&#xa7;" horiz-adv-x="591" d="M516 115v-158q0 -242 -233 -242q-121 0 -173.5 58.5t-52.5 183.5v207h154v-197q0 -86 68 -86q70 0 69 76v156q0 63 -28.5 100t-99 121t-105.5 131q-63 86 -64 233v144q0 166 111 211q-53 68 -74.5 119t-21.5 133v157q0 242 233 242q121 0 173 -58.5t52 -183.5v-207h-153 v197q0 86 -68 86q-70 0 -70 -76v-155q0 -66 29 -101l99.5 -121t105.5 -131q63 -86 63 -233v-143q0 -168 -110 -211q57 -78 76.5 -124t19.5 -128zM367 578v141q0 86 -52 147l-45 54q-55 -4 -55 -78v-142q0 -82 51 -147l43 -55q33 4 45.5 22.5t12.5 57.5z" />
<glyph unicode="&#xa8;" horiz-adv-x="628" d="M557 1368h-172v256h172v-256zM244 1368h-170v256h170v-256z" />
<glyph unicode="&#xa9;" horiz-adv-x="1067" d="M1008 1233v-780q0 -252 -113 -361.5t-360.5 -109.5t-360.5 109.5t-113 361.5v780q0 252 113 361.5t360.5 109.5t360.5 -109.5t113 -361.5zM879 436v811q0 190 -76 263t-268 73q-195 0 -271 -72.5t-76 -263.5v-811q0 -180 78 -256t268.5 -76t267.5 76t77 256zM584 489v222 h108v-219q0 -92 -37 -136.5t-118 -44.5q-172 0 -172 178v721q0 184 172 185q156 0 155 -183v-188h-108v188q0 61 -47 62q-49 0 -50 -62v-723q0 -59 50 -59q47 0 47 59z" />
<glyph unicode="&#xaa;" horiz-adv-x="444" d="M352 614h-100q-4 10 -4 35q-29 -45 -72 -45q-92 0 -92 111v102q0 47 9 79t37 56.5t45.5 34.5t64.5 35v164q0 27 -25 26.5t-25 -26.5v-148h-96v148q0 137 123 137q129 0 129 -137v-512q0 -44 6 -60zM240 729v205q-47 -29 -47 -74v-125q0 -23 24 -22q17 0 23 16z" />
<glyph unicode="&#xab;" horiz-adv-x="798" d="M362 356l-325 230v194l325 217v-159l-235 -154l235 -162v-166zM762 356l-326 230v194l326 217v-159l-236 -154l236 -162v-166z" />
<glyph unicode="&#xac;" horiz-adv-x="874" d="M801 0h-176v766h-586v180h762v-946z" />
<glyph unicode="&#xad;" horiz-adv-x="372" d="M352 776h-327v146h327v-146z" />
<glyph unicode="&#xae;" horiz-adv-x="1067" d="M1006 1233v-780q0 -252 -113 -361.5t-360.5 -109.5t-360.5 109.5t-113 361.5v780q0 252 113 361.5t360.5 109.5t360.5 -109.5t113 -361.5zM879 436v811q0 188 -76 261t-270.5 73t-269.5 -72.5t-75 -261.5v-811q0 -180 78 -256t266 -76q193 0 270 75t77 257zM596 975v190 q0 49 -13.5 72t-52.5 23h-43v-353h43q66 0 66 68zM729 322h-133q-35 305 -61 471h-48v-471h-120v1060h163q96 0 141.5 -45t45.5 -147v-217q0 -121 -68 -154q37 -190 80 -497z" />
<glyph unicode="&#xaf;" horiz-adv-x="624" d="M553 1421h-479v148h479v-148z" />
<glyph unicode="&#xb0;" horiz-adv-x="626" d="M313 1147q-123 0 -187.5 72.5t-64.5 195.5q0 121 66 198t186.5 77t186 -77t65.5 -198t-65.5 -194.5t-186.5 -73.5zM311 1251q143 0 144 164q0 168 -144 168q-147 0 -147 -168q0 -164 147 -164z" />
<glyph unicode="&#xb1;" horiz-adv-x="954" d="M549 453h-141v335h-334v142h334v334h141v-334h336v-142h-336v-335zM883 236h-811v141h811v-141z" />
<glyph unicode="&#xb2;" horiz-adv-x="380" d="M328 864h-273v154q0 78 15.5 125t66.5 125q78 119 78 215v90q0 31 -24.5 31t-24.5 -31v-150h-111v148q0 76 33 110.5t102 34.5q137 0 138 -145v-103q0 -113 -84 -237q-49 -76 -63.5 -117t-14.5 -96v-43h162v-111z" />
<glyph unicode="&#xb3;" horiz-adv-x="380" d="M217 997v211q0 33 -27 33h-43v105h50q20 0 20 32v195q0 31 -27 31q-25 0 -24 -31v-152h-109v150q0 76 32 110.5t101.5 34.5t101.5 -34.5t32 -112.5v-191q0 -59 -50 -86q51 -18 52 -88v-207q0 -143 -136 -143q-66 0 -101.5 39t-35.5 104v166h113v-166q0 -31 24 -30 q27 -1 27 30z" />
<glyph unicode="&#xb4;" horiz-adv-x="591" d="M238 1343h-164l225 330h219z" />
<glyph unicode="&#xb5;" horiz-adv-x="622" d="M549 0h-146q-4 25 -4 80q-43 -78 -155 -78v-287h-172v1553h172v-1037q0 -76 57 -75q51 0 78 47v1065h170v-1268z" />
<glyph unicode="&#xb6;" horiz-adv-x="884" d="M727 -274h-158v1777h-155v-1562q0 -104 -52.5 -172t-150.5 -68q-45 0 -90 14v131q27 -6 41 -6q49 0 69.5 22.5t20.5 80.5v1284h-16q-205 0 -205 223q0 106 51 171t160 65h608v-183h-123v-1777zM252 1319v184h-23q-70 0 -69 -94q0 -90 61 -90h31z" />
<glyph unicode="&#xb7;" horiz-adv-x="296" d="M238 717h-177v256h177v-256z" />
<glyph unicode="&#xb8;" horiz-adv-x="288" d="M125 -305h-35v57h29q23 0 22 25v35h-67v147h141v-180q0 -84 -90 -84z" />
<glyph unicode="&#xb9;" horiz-adv-x="270" d="M203 864h-111v672h-47v109h21q37 0 36 41v20h101v-842z" />
<glyph unicode="&#xba;" horiz-adv-x="452" d="M92 743v441q0 139 133 139t133 -139v-441q0 -139 -133 -139t-133 139zM250 748v432q0 29 -24.5 28.5t-24.5 -28.5v-432q0 -31 24.5 -31t24.5 31z" />
<glyph unicode="&#xbb;" horiz-adv-x="798" d="M362 586l-325 -230v166l235 162l-235 154v159l325 -217v-194zM762 586l-326 -230v166l236 162l-236 154v159l326 -217v-194z" />
<glyph unicode="&#xbc;" horiz-adv-x="991" d="M295 864h-111v672h-47v109h21q37 0 37 41v20h100v-842zM184 0h-127l752 1686h125zM700 248h74q0 137 6 291q-17 -86 -80 -291zM877 -20h-103v161h-172v97l172 583h103v-573h41v-107h-41v-161z" />
<glyph unicode="&#xbd;" horiz-adv-x="991" d="M295 864h-111v672h-47v109h21q37 0 37 41v20h100v-842zM184 0h-127l752 1686h125zM913 -20h-272v153q0 78 15.5 125t66.5 125q78 119 78 215v90q0 31 -24.5 31t-24.5 -31v-149h-111v147q0 76 33 110.5t102 34.5q137 0 137 -145v-102q0 -113 -84 -238q-49 -76 -63 -117 t-14 -96v-43h161v-110z" />
<glyph unicode="&#xbe;" horiz-adv-x="991" d="M260 997v211q0 33 -27 33h-43v105h50q20 0 20 32v195q0 31 -27 31q-25 0 -24 -31v-152h-109v150q0 76 32 110.5t101.5 34.5t101.5 -34.5t32 -112.5v-191q0 -59 -50 -86q51 -18 52 -88v-207q0 -143 -136 -143q-66 0 -101.5 39t-35.5 104v166h113v-166q0 -31 24 -30 q27 -1 27 30zM184 0h-127l752 1686h125zM659 248h74q0 137 6 291q-17 -86 -80 -291zM836 -20h-103v161h-172v97l172 583h103v-573h41v-107h-41v-161z" />
<glyph unicode="&#xbf;" horiz-adv-x="614" d="M244 1303h176v-228q0 -123 -21.5 -193.5t-79.5 -138.5q-61 -72 -75.5 -116.5t-14.5 -167.5v-189q0 -98 78 -98q80 0 80 96v299h180v-295q0 -150 -62.5 -220t-197.5 -70t-199.5 71.5t-64.5 220.5v185q0 219 102 340q70 80 84.5 122t14.5 150v232zM244 1686h176v-256h-176 v256z" />
<glyph unicode="&#xc0;" horiz-adv-x="690" d="M666 0h-191l-31 260h-206q-12 -88 -33 -260h-185l220 1686h219zM256 434h168q-55 483 -82 766q-37 -391 -86 -766zM465 1761h-164l-281 330h218z" />
<glyph unicode="&#xc1;" horiz-adv-x="690" d="M666 0h-191l-31 260h-206q-12 -88 -33 -260h-185l220 1686h219zM256 434h168q-55 483 -82 766q-37 -391 -86 -766zM389 1761h-164l226 330h219z" />
<glyph unicode="&#xc2;" horiz-adv-x="690" d="M666 0h-191l-31 260h-206q-12 -88 -33 -260h-185l220 1686h219zM256 434h168q-55 483 -82 766q-37 -391 -86 -766zM649 1761h-166l-139 238l-145 -238h-158l209 330h201z" />
<glyph unicode="&#xc3;" horiz-adv-x="690" d="M666 0h-191l-31 260h-206q-12 -88 -33 -260h-185l220 1686h219zM256 434h168q-55 483 -82 766q-37 -391 -86 -766zM594 2013v-147q-47 -51 -127 -51q-49 0 -131 32.5t-125 32.5q-68 0 -115 -59h-2v145q45 53 127 53q51 0 130 -31.5t126 -31.5q74 0 115 57h2z" />
<glyph unicode="&#xc4;" horiz-adv-x="690" d="M666 0h-191l-31 260h-206q-12 -88 -33 -260h-185l220 1686h219zM256 434h168q-55 483 -82 766q-37 -391 -86 -766zM586 1786h-172v256h172v-256zM272 1786h-170v256h170v-256z" />
<glyph unicode="&#xc5;" horiz-adv-x="690" d="M666 0h-191l-31 260h-206q-12 -88 -33 -260h-185l220 1686h219zM256 434h168q-55 483 -82 766q-37 -391 -86 -766zM545 1927q0 -72 -52.5 -116t-150.5 -44q-96 0 -147.5 44t-51.5 116q0 74 51.5 119t147.5 45q98 0 150.5 -45t52.5 -119zM455 1927q0 90 -113 90 q-115 0 -115 -90q0 -86 115 -86q113 0 113 86z" />
<glyph unicode="&#xc6;" horiz-adv-x="956" d="M918 0h-465v262h-213l-33 -262h-184l219 1686h667v-191h-264v-541h178v-190h-178v-576h273v-188zM453 434v1061h-64l-129 -1061h193z" />
<glyph unicode="&#xc7;" horiz-adv-x="634" d="M412 268v350h172v-348q0 -147 -60.5 -217.5t-189.5 -70.5q-272 0 -273 284v1147q0 291 273 291q250 0 250 -287v-299h-172v299q0 96 -78 96q-80 0 -80 -96v-1149q0 -98 80 -98q78 0 78 98zM317 -305h-34v57h28q23 0 23 25v35h-68v147h142v-180q-1 -84 -91 -84z" />
<glyph unicode="&#xc8;" d="M539 0h-465v1686h454v-191h-266v-541h178v-190h-178v-576h277v-188zM418 1761h-164l-281 330h217z" />
<glyph unicode="&#xc9;" d="M539 0h-465v1686h454v-191h-266v-541h178v-190h-178v-576h277v-188zM332 1761h-164l225 330h219z" />
<glyph unicode="&#xca;" d="M539 0h-465v1686h454v-191h-266v-541h178v-190h-178v-576h277v-188zM602 1761h-166l-139 238l-145 -238h-158l209 330h200z" />
<glyph unicode="&#xcb;" d="M539 0h-465v1686h454v-191h-266v-541h178v-190h-178v-576h277v-188zM541 1786h-172v256h172v-256zM227 1786h-170v256h170v-256z" />
<glyph unicode="&#xcc;" horiz-adv-x="344" d="M266 0h-188v1686h188v-1686zM293 1761h-164l-281 330h218z" />
<glyph unicode="&#xcd;" horiz-adv-x="344" d="M266 0h-188v1686h188v-1686zM217 1761h-164l226 330h219z" />
<glyph unicode="&#xce;" horiz-adv-x="344" d="M266 0h-188v1686h188v-1686zM477 1761h-166l-139 238l-145 -238h-158l209 330h201z" />
<glyph unicode="&#xcf;" horiz-adv-x="344" d="M266 0h-188v1686h188v-1686zM414 1786h-172v256h172v-256zM100 1786h-170v256h170v-256z" />
<glyph unicode="&#xd0;" horiz-adv-x="667" d="M338 0h-268v764h-52v190h52v732h268q131 0 200.5 -76t69.5 -213v-1110q0 -287 -270 -287zM420 287v1112q0 96 -82 96h-78v-541h92v-190h-92v-576h78q82 1 82 99z" />
<glyph unicode="&#xd1;" horiz-adv-x="727" d="M657 0h-184l-248 1130q4 -231 4 -694v-436h-161v1686h221q123 -692 211 -1145q-4 193 -4 571v574h161v-1686zM612 2013v-147q-47 -51 -127 -51q-51 0 -131 32.5t-125 32.5q-68 0 -114 -59h-2v145q45 53 127 53q51 0 130 -31.5t126 -31.5q74 0 114 57h2z" />
<glyph unicode="&#xd2;" horiz-adv-x="661" d="M61 268v1149q0 287 269 287q270 0 270 -287v-1149q0 -287 -270 -286q-269 -1 -269 286zM412 268v1149q0 96 -82 96q-80 0 -80 -96v-1149q0 -98 80 -98q82 0 82 98zM451 1761h-164l-281 330h217z" />
<glyph unicode="&#xd3;" horiz-adv-x="661" d="M61 268v1149q0 287 269 287q270 0 270 -287v-1149q0 -287 -270 -286q-269 -1 -269 286zM412 268v1149q0 96 -82 96q-80 0 -80 -96v-1149q0 -98 80 -98q82 0 82 98zM375 1761h-164l225 330h219z" />
<glyph unicode="&#xd4;" horiz-adv-x="661" d="M61 268v1149q0 287 269 287q270 0 270 -287v-1149q0 -287 -270 -286q-269 -1 -269 286zM412 268v1149q0 96 -82 96q-80 0 -80 -96v-1149q0 -98 80 -98q82 0 82 98zM635 1761h-166l-139 238l-146 -238h-157l209 330h200z" />
<glyph unicode="&#xd5;" horiz-adv-x="661" d="M61 268v1149q0 287 269 287q270 0 270 -287v-1149q0 -287 -270 -286q-269 -1 -269 286zM412 268v1149q0 96 -82 96q-80 0 -80 -96v-1149q0 -98 80 -98q82 0 82 98zM580 2013v-147q-47 -51 -127 -51q-51 0 -131 32.5t-125 32.5q-68 0 -115 -59h-2v145q45 53 127 53 q51 0 130 -31.5t126 -31.5q74 0 115 57h2z" />
<glyph unicode="&#xd6;" horiz-adv-x="661" d="M61 268v1149q0 287 269 287q270 0 270 -287v-1149q0 -287 -270 -286q-269 -1 -269 286zM412 268v1149q0 96 -82 96q-80 0 -80 -96v-1149q0 -98 80 -98q82 0 82 98zM571 1786h-172v256h172v-256zM258 1786h-170v256h170v-256z" />
<glyph unicode="&#xd7;" horiz-adv-x="954" d="M815 621l-100 -101l-238 238l-235 -236l-101 101l238 235l-238 236l101 100l235 -236l238 238l100 -100l-237 -238z" />
<glyph unicode="&#xd8;" horiz-adv-x="661" d="M141 -193h-82l58 261q-55 74 -56 200v1149q0 287 269 287q80 0 141 -29l45 203h84l-57 -260q57 -74 57 -201v-1149q0 -287 -270 -286q-82 0 -144 28zM412 268v760l-162 -731v-29q0 -98 80 -98q82 0 82 98zM250 672l162 733v12q0 96 -82 96q-80 0 -80 -96v-745z" />
<glyph unicode="&#xd9;" horiz-adv-x="671" d="M416 268v1418h188v-1418q0 -287 -268 -286.5t-268 286.5v1418h188v-1418q0 -98 80 -98t80 98zM457 1761h-164l-281 330h217z" />
<glyph unicode="&#xda;" horiz-adv-x="671" d="M416 268v1418h188v-1418q0 -287 -268 -286.5t-268 286.5v1418h188v-1418q0 -98 80 -98t80 98zM379 1761h-164l225 330h219z" />
<glyph unicode="&#xdb;" horiz-adv-x="671" d="M416 268v1418h188v-1418q0 -287 -268 -286.5t-268 286.5v1418h188v-1418q0 -98 80 -98t80 98zM641 1761h-166l-139 238l-146 -238h-157l209 330h200z" />
<glyph unicode="&#xdc;" horiz-adv-x="671" d="M416 268v1418h188v-1418q0 -287 -268 -286.5t-268 286.5v1418h188v-1418q0 -98 80 -98t80 98zM578 1786h-172v256h172v-256zM264 1786h-170v256h170v-256z" />
<glyph unicode="&#xdd;" horiz-adv-x="684" d="M434 0h-192v737l-226 949h199q27 -156 77 -396.5t54 -269.5q4 31 57.5 271.5t79.5 394.5h185l-234 -949v-737zM387 1761h-164l226 330h219z" />
<glyph unicode="&#xde;" horiz-adv-x="673" d="M453 565v518q0 113 -107 113h-84v-745h86q105 -1 105 114zM262 0h-188v1686h188v-300h84q297 0 297 -303v-518q0 -147 -74.5 -225t-220.5 -78h-86v-262z" />
<glyph unicode="&#xdf;" horiz-adv-x="675" d="M319 -10l3 170q23 -6 55 -6q41 0 58.5 20.5t17.5 67.5v467q0 86 -76 86h-82v163h29q57 0 57 74v414q0 84 -70 84q-72 0 -71 -84v-1446h-166v1452q0 252 237 252q117 0 176.5 -64.5t59.5 -187.5v-420q0 -92 -55 -123q129 -37 129 -207v-460q0 -135 -53.5 -197.5 t-176.5 -62.5q-47 0 -72 8z" />
<glyph unicode="&#xe0;" horiz-adv-x="583" d="M522 0h-155q-8 25 -9 70q-49 -88 -141 -88q-174 0 -174 200v187q0 86 21.5 148.5t70.5 106.5t91 67.5t122 58.5v286q0 80 -67 80q-41 0 -55.5 -19.5t-14.5 -60.5v-266h-150v268q0 250 224 250q227 0 227 -250v-929q0 -74 10 -109zM348 203v409q-49 -18 -78.5 -39.5 t-42 -58.5t-14.5 -65.5t-2 -92.5v-131q0 -78 70 -78q49 1 67 56zM412 1343h-164l-281 330h217z" />
<glyph unicode="&#xe1;" horiz-adv-x="583" d="M522 0h-155q-8 25 -9 70q-49 -88 -141 -88q-174 0 -174 200v187q0 86 21.5 148.5t70.5 106.5t91 67.5t122 58.5v286q0 80 -67 80q-41 0 -55.5 -19.5t-14.5 -60.5v-266h-150v268q0 250 224 250q227 0 227 -250v-929q0 -74 10 -109zM348 203v409q-49 -18 -78.5 -39.5 t-42 -58.5t-14.5 -65.5t-2 -92.5v-131q0 -78 70 -78q49 1 67 56zM336 1343h-164l225 330h219z" />
<glyph unicode="&#xe2;" horiz-adv-x="583" d="M522 0h-155q-8 25 -9 70q-49 -88 -141 -88q-174 0 -174 200v187q0 86 21.5 148.5t70.5 106.5t91 67.5t122 58.5v286q0 80 -67 80q-41 0 -55.5 -19.5t-14.5 -60.5v-266h-150v268q0 250 224 250q227 0 227 -250v-929q0 -74 10 -109zM348 203v409q-49 -18 -78.5 -39.5 t-42 -58.5t-14.5 -65.5t-2 -92.5v-131q0 -78 70 -78q49 1 67 56zM596 1343h-166l-139 238l-146 -238h-157l209 330h200z" />
<glyph unicode="&#xe3;" horiz-adv-x="583" d="M522 0h-155q-8 25 -9 70q-49 -88 -141 -88q-174 0 -174 200v187q0 86 21.5 148.5t70.5 106.5t91 67.5t122 58.5v286q0 80 -67 80q-41 0 -55.5 -19.5t-14.5 -60.5v-266h-150v268q0 250 224 250q227 0 227 -250v-929q0 -74 10 -109zM348 203v409q-49 -18 -78.5 -39.5 t-42 -58.5t-14.5 -65.5t-2 -92.5v-131q0 -78 70 -78q49 1 67 56zM543 1595v-147q-47 -51 -127 -51q-51 0 -131 32.5t-125 32.5q-68 0 -115 -59h-2v145q45 53 127 54q51 0 130 -32t126 -32q74 0 115 57h2z" />
<glyph unicode="&#xe4;" horiz-adv-x="583" d="M522 0h-155q-8 25 -9 70q-49 -88 -141 -88q-174 0 -174 200v187q0 86 21.5 148.5t70.5 106.5t91 67.5t122 58.5v286q0 80 -67 80q-41 0 -55.5 -19.5t-14.5 -60.5v-266h-150v268q0 250 224 250q227 0 227 -250v-929q0 -74 10 -109zM348 203v409q-49 -18 -78.5 -39.5 t-42 -58.5t-14.5 -65.5t-2 -92.5v-131q0 -78 70 -78q49 1 67 56zM535 1368h-173v256h173v-256zM221 1368h-170v256h170v-256z" />
<glyph unicode="&#xe5;" horiz-adv-x="583" d="M522 0h-155q-8 25 -9 70q-49 -88 -141 -88q-174 0 -174 200v187q0 86 21.5 148.5t70.5 106.5t91 67.5t122 58.5v286q0 80 -67 80q-41 0 -55.5 -19.5t-14.5 -60.5v-266h-150v268q0 250 224 250q227 0 227 -250v-929q0 -74 10 -109zM348 203v409q-49 -18 -78.5 -39.5 t-42 -58.5t-14.5 -65.5t-2 -92.5v-131q0 -78 70 -78q49 1 67 56zM492 1509q0 -72 -52.5 -115.5t-150.5 -43.5q-96 0 -147.5 44t-51.5 115q0 74 51.5 119t147.5 45q98 0 150.5 -45t52.5 -119zM401 1509q0 90 -112 90q-115 0 -115 -90q0 -86 115 -86q112 0 112 86z" />
<glyph unicode="&#xe6;" horiz-adv-x="868" d="M647 238v278h160v-278q0 -256 -229 -256q-121 0 -177 94q-49 -94 -174 -94q-184 0 -184 200v187q0 86 21.5 148.5t70.5 106.5t91 67.5t122 58.5v288q0 78 -67 78q-70 0 -70 -78v-268h-150v268q0 250 224 250q96 0 149 -47q53 47 144 47q229 0 229 -260v-418h-295v-379 q0 -76 66 -75q69 0 69 82zM348 203v409q-49 -18 -78.5 -39.5t-42 -58.5t-14.5 -65.5t-2 -92.5v-106q0 -53 14.5 -78t55.5 -25q49 1 67 56zM647 733v295q0 82 -69 82q-66 0 -66 -82v-295h135z" />
<glyph unicode="&#xe7;" horiz-adv-x="581" d="M367 240v278h159v-282q0 -119 -57 -186.5t-172 -67.5q-117 0 -176.5 69.5t-59.5 188.5v786q0 121 59.5 191.5t176.5 70.5q115 0 170 -69.5t55 -190.5v-274h-155v278q0 80 -70 80t-70 -82v-790q0 -84 70 -84t70 84zM281 -305h-35v57h28q23 0 23 25v35h-68v147h142v-180 q0 -84 -90 -84z" />
<glyph unicode="&#xe8;" d="M354 733v295q0 82 -69 82q-66 0 -66 -82v-295h135zM354 240v276h160v-278q0 -256 -229 -256q-223 0 -224 256v790q0 260 224 260q229 0 229 -260v-418h-295v-372q0 -82 66 -82q69 0 69 84zM408 1343h-164l-281 330h217z" />
<glyph unicode="&#xe9;" d="M354 733v295q0 82 -69 82q-66 0 -66 -82v-295h135zM354 240v276h160v-278q0 -256 -229 -256q-223 0 -224 256v790q0 260 224 260q229 0 229 -260v-418h-295v-372q0 -82 66 -82q69 0 69 84zM332 1343h-164l225 330h219z" />
<glyph unicode="&#xea;" d="M354 733v295q0 82 -69 82q-66 0 -66 -82v-295h135zM354 240v276h160v-278q0 -256 -229 -256q-223 0 -224 256v790q0 260 224 260q229 0 229 -260v-418h-295v-372q0 -82 66 -82q69 0 69 84zM592 1343h-166l-139 238l-146 -238h-157l209 330h200z" />
<glyph unicode="&#xeb;" d="M354 733v295q0 82 -69 82q-66 0 -66 -82v-295h135zM354 240v276h160v-278q0 -256 -229 -256q-223 0 -224 256v790q0 260 224 260q229 0 229 -260v-418h-295v-372q0 -82 66 -82q69 0 69 84zM530 1368h-172v256h172v-256zM217 1368h-170v256h170v-256z" />
<glyph unicode="&#xec;" horiz-adv-x="348" d="M272 0h-170v1268h170v-1268zM307 1343h-164l-280 330h217z" />
<glyph unicode="&#xed;" horiz-adv-x="380" d="M248 0h-170v1268h170v-1268zM207 1343h-164l225 330h219z" />
<glyph unicode="&#xee;" horiz-adv-x="493" d="M332 0h-170v1268h170v-1268zM551 1343h-166l-139 238l-146 -238h-157l209 330h200z" />
<glyph unicode="&#xef;" horiz-adv-x="389" d="M279 0h-170v1268h170v-1268zM434 1368h-172v256h172v-256zM121 1368h-170v256h170v-256z" />
<glyph unicode="&#xf0;" horiz-adv-x="661" d="M61 274v541q0 250 228 250q92 0 137 -66v197q0 119 -23 190l-190 -233l-63 55l206 256q-45 43 -149 49v191q178 0 270 -92l88 106l64 -55l-99 -121q70 -125 70 -371v-897q0 -141 -68.5 -216.5t-201.5 -75.5t-201 75.5t-68 216.5zM410 268v535q-14 76 -76 76 q-84 0 -84 -97v-501q0 -111 80 -111t80 98z" />
<glyph unicode="&#xf1;" horiz-adv-x="620" d="M555 0h-172v1044q0 76 -61 76q-55 0 -78 -49v-1071h-170v1268h143q6 -37 6 -82q61 102 170 102q162 0 162 -233v-1055zM561 1595v-147q-47 -51 -127 -51q-49 0 -131 32.5t-125 32.5q-68 0 -115 -59h-2v145q45 53 127 54q51 0 130 -32t126 -32q74 0 115 57h2z" />
<glyph unicode="&#xf2;" horiz-adv-x="595" d="M61 233v801q0 254 238 254q117 0 177.5 -65.5t60.5 -188.5v-801q0 -123 -60.5 -187t-177.5 -64q-238 -1 -238 251zM369 240v788q0 84 -70 84q-72 0 -72 -84v-790q0 -82 72 -82q70 0 70 84zM418 1343h-164l-281 330h217z" />
<glyph unicode="&#xf3;" horiz-adv-x="595" d="M61 233v801q0 254 238 254q117 0 177.5 -65.5t60.5 -188.5v-801q0 -123 -60.5 -187t-177.5 -64q-238 -1 -238 251zM369 240v788q0 84 -70 84q-72 0 -72 -84v-790q0 -82 72 -82q70 0 70 84zM342 1343h-164l225 330h220z" />
<glyph unicode="&#xf4;" horiz-adv-x="595" d="M61 233v801q0 254 238 254q117 0 177.5 -65.5t60.5 -188.5v-801q0 -123 -60.5 -187t-177.5 -64q-238 -1 -238 251zM369 240v788q0 84 -70 84q-72 0 -72 -84v-790q0 -82 72 -82q70 0 70 84zM602 1343h-166l-139 238l-145 -238h-158l209 330h200z" />
<glyph unicode="&#xf5;" horiz-adv-x="595" d="M61 233v801q0 254 238 254q117 0 177.5 -65.5t60.5 -188.5v-801q0 -123 -60.5 -187t-177.5 -64q-238 -1 -238 251zM369 240v788q0 84 -70 84q-72 0 -72 -84v-790q0 -82 72 -82q70 0 70 84zM549 1595v-147q-47 -51 -127 -51q-49 0 -131 32.5t-125 32.5q-68 0 -115 -59h-2 v145q45 53 127 54q51 0 130 -32t126 -32q74 0 115 57h2z" />
<glyph unicode="&#xf6;" horiz-adv-x="595" d="M61 233v801q0 254 238 254q117 0 177.5 -65.5t60.5 -188.5v-801q0 -123 -60.5 -187t-177.5 -64q-238 -1 -238 251zM369 240v788q0 84 -70 84q-72 0 -72 -84v-790q0 -82 72 -82q70 0 70 84zM541 1368h-172v256h172v-256zM227 1368h-170v256h170v-256z" />
<glyph unicode="&#xf7;" horiz-adv-x="954" d="M885 788h-811v142h811v-142zM565 1094h-176v256h176v-256zM565 369h-176v256h176v-256z" />
<glyph unicode="&#xf8;" horiz-adv-x="595" d="M141 -193h-82l58 242q-55 66 -56 184v801q0 254 238 254q61 0 109 -18l45 190h82l-58 -239q59 -66 60 -187v-801q0 -123 -60.5 -187t-177.5 -64q-57 0 -113 18zM369 240v522l-136 -569q12 -37 66 -37q70 0 70 84zM227 514l133 561q-12 37 -61 37q-72 0 -72 -84v-514z" />
<glyph unicode="&#xf9;" horiz-adv-x="616" d="M545 0h-146q-6 37 -6 80q-57 -92 -166 -92q-76 0 -117.5 57t-41.5 160v1063h170v-1037q0 -76 59 -75q53 0 76 49v1063h172v-1268zM428 1343h-164l-280 330h217z" />
<glyph unicode="&#xfa;" horiz-adv-x="616" d="M545 0h-146q-6 37 -6 80q-57 -92 -166 -92q-76 0 -117.5 57t-41.5 160v1063h170v-1037q0 -76 59 -75q53 0 76 49v1063h172v-1268zM352 1343h-164l226 330h219z" />
<glyph unicode="&#xfb;" horiz-adv-x="616" d="M545 0h-146q-6 37 -6 80q-57 -92 -166 -92q-76 0 -117.5 57t-41.5 160v1063h170v-1037q0 -76 59 -75q53 0 76 49v1063h172v-1268zM612 1343h-166l-139 238l-145 -238h-158l209 330h201z" />
<glyph unicode="&#xfc;" horiz-adv-x="616" d="M545 0h-146q-6 37 -6 80q-57 -92 -166 -92q-76 0 -117.5 57t-41.5 160v1063h170v-1037q0 -76 59 -75q53 0 76 49v1063h172v-1268zM551 1368h-172v256h172v-256zM238 1368h-170v256h170v-256z" />
<glyph unicode="&#xfd;" horiz-adv-x="569" d="M37 -285v170q27 -8 69 -8q39 0 57.5 33t29.5 102l4 27l-179 1229h179q49 -455 86 -889q43 430 100 889h164l-172 -1221q-31 -186 -80 -264t-182 -78q-25 0 -76 10zM328 1343h-164l225 330h219z" />
<glyph unicode="&#xfe;" horiz-adv-x="622" d="M244 -285h-170v1971h170v-457q49 59 133 59q94 0 139 -56t45 -177v-842q0 -121 -45 -176t-139 -55q-86 0 -133 57v-324zM391 236v796q0 78 -69 78q-55 0 -78 -55v-842q20 -53 78 -53q69 0 69 76z" />
<glyph unicode="&#xff;" horiz-adv-x="569" d="M37 -285v170q27 -8 69 -8q39 0 57.5 33t29.5 102l4 27l-179 1229h179q49 -455 86 -889q43 430 100 889h164l-172 -1221q-31 -186 -80 -264t-182 -78q-25 0 -76 10zM526 1368h-172v256h172v-256zM213 1368h-170v256h170v-256z" />
<glyph unicode="&#x152;" horiz-adv-x="892" d="M856 0h-414q-45 -18 -112 -18q-268 0 -269 286v1149q0 287 269 287q68 0 112 -18h404v-191h-266v-541h178v-190h-178v-576h276v-188zM391 178v1327q-23 8 -61 8q-80 0 -80 -96v-1149q0 -98 80 -98q28 0 61 8z" />
<glyph unicode="&#x153;" horiz-adv-x="890" d="M670 240v276h161v-278q0 -256 -231 -256q-92 0 -149 47q-53 -47 -152 -47q-238 0 -238 251v801q0 254 238 254q96 0 154 -51q57 51 147 51q231 0 231 -260v-418h-294v-372q0 -82 63 -82q70 0 70 84zM369 240v788q0 84 -70 84q-72 0 -72 -84v-790q0 -82 72 -82q70 0 70 84 zM670 733v295q0 82 -70 82q-63 0 -63 -82v-295h133z" />
<glyph unicode="&#x178;" horiz-adv-x="684" d="M434 0h-192v737l-226 949h199q27 -156 77 -396.5t54 -269.5q4 31 57.5 271.5t79.5 394.5h185l-234 -949v-737zM584 1786h-172v256h172v-256zM270 1786h-170v256h170v-256z" />
<glyph unicode="&#x2c6;" horiz-adv-x="792" d="M700 1343h-165l-140 238l-145 -238h-158l209 330h201z" />
<glyph unicode="&#x2dc;" horiz-adv-x="645" d="M571 1595v-147q-47 -51 -127 -51q-51 0 -131 32.5t-125 32.5q-68 0 -114 -59h-2v145q45 53 127 54q51 0 130 -32t126 -32q74 0 114 57h2z" />
<glyph unicode="&#x3bc;" horiz-adv-x="622" d="M549 0h-146q-4 25 -4 80q-43 -78 -155 -78v-287h-172v1553h172v-1037q0 -76 57 -75q51 0 78 47v1065h170v-1268z" />
<glyph unicode="&#x2000;" horiz-adv-x="1045" />
<glyph unicode="&#x2001;" horiz-adv-x="2091" />
<glyph unicode="&#x2002;" horiz-adv-x="1045" />
<glyph unicode="&#x2003;" horiz-adv-x="2091" />
<glyph unicode="&#x2004;" horiz-adv-x="697" />
<glyph unicode="&#x2005;" horiz-adv-x="522" />
<glyph unicode="&#x2006;" horiz-adv-x="348" />
<glyph unicode="&#x2007;" horiz-adv-x="348" />
<glyph unicode="&#x2008;" horiz-adv-x="261" />
<glyph unicode="&#x2009;" horiz-adv-x="418" />
<glyph unicode="&#x200a;" horiz-adv-x="116" />
<glyph unicode="&#x2010;" horiz-adv-x="372" d="M352 776h-327v146h327v-146z" />
<glyph unicode="&#x2011;" horiz-adv-x="372" d="M352 776h-327v146h327v-146z" />
<glyph unicode="&#x2012;" horiz-adv-x="372" d="M352 776h-327v146h327v-146z" />
<glyph unicode="&#x2013;" horiz-adv-x="573" d="M551 776h-526v146h526v-146z" />
<glyph unicode="&#x2014;" horiz-adv-x="905" d="M885 776h-860v146h860v-146z" />
<glyph unicode="&#x2018;" horiz-adv-x="299" d="M238 1321h-177v250q0 59 33 95t101 36h20v-78h-20q-37 0 -37 -41v-51h80v-211z" />
<glyph unicode="&#x2019;" horiz-adv-x="299" d="M104 1305h-20v77h18q39 0 39 43v50h-80v211h177v-248q-1 -133 -134 -133z" />
<glyph unicode="&#x201a;" horiz-adv-x="313" d="M113 -125h-21v78h19q39 0 39 43v49h-80v211h176v-248q0 -59 -32.5 -96t-100.5 -37z" />
<glyph unicode="&#x201c;" horiz-adv-x="598" d="M238 1321h-177v250q0 59 33 95t101 36h20v-78h-20q-37 0 -37 -41v-51h80v-211zM537 1321h-177v250q0 59 33 95t101 36h20v-78h-20q-37 0 -37 -41v-51h80v-211z" />
<glyph unicode="&#x201d;" horiz-adv-x="598" d="M104 1305h-20v77h18q39 0 39 43v50h-80v211h177v-248q-1 -133 -134 -133zM403 1305h-20v77h18q39 0 39 43v50h-80v211h177v-248q-1 -133 -134 -133z" />
<glyph unicode="&#x201e;" horiz-adv-x="626" d="M113 -125h-21v78h19q39 0 39 43v49h-80v211h176v-248q0 -59 -32.5 -96t-100.5 -37zM426 -125h-20v78h18q39 0 39 43v49h-80v211h176v-248q0 -59 -32.5 -96t-100.5 -37z" />
<glyph unicode="&#x2022;" horiz-adv-x="430" d="M217 784q-72 0 -114 50.5t-42 128.5q0 76 42 126t114 50q70 0 112 -50.5t42 -125.5q0 -78 -42 -128.5t-112 -50.5z" />
<glyph unicode="&#x2026;" horiz-adv-x="1484" d="M238 0h-177v256h177v-256zM831 0h-176v256h176v-256zM1425 0h-176v256h176v-256z" />
<glyph unicode="&#x202f;" horiz-adv-x="418" />
<glyph unicode="&#x2039;" horiz-adv-x="399" d="M362 356l-325 230v194l325 217v-159l-235 -154l235 -162v-166z" />
<glyph unicode="&#x203a;" horiz-adv-x="399" d="M362 586l-325 -230v166l235 162l-235 154v159l325 -217v-194z" />
<glyph unicode="&#x205f;" horiz-adv-x="522" />
<glyph unicode="&#x20ac;" horiz-adv-x="706" d="M668 426v-158q0 -287 -277 -286q-279 0 -278 286v326h-97l23 143h74v240h-97l23 145h74v254q0 172 80.5 250t281.5 78q115 0 213 -10l-31 -191q-86 12 -176 13q-109 0 -143.5 -31t-34.5 -109v-254h295l-25 -145h-270v-240h236l-25 -143h-211v-330q0 -41 23.5 -69.5 t64.5 -28.5q53 0 71.5 33.5t18.5 109.5v117h187z" />
<glyph unicode="&#x2122;" horiz-adv-x="999" d="M272 907h-116v688h-105v91h326v-91h-105v-688zM926 907h-107v226q0 154 6 303l-88 -529h-100l-88 529q6 -301 6 -303v-226h-106v779h153q49 -362 84 -576l84 576h156v-779z" />
<glyph unicode="&#xe000;" horiz-adv-x="1270" d="M0 1270h1270v-1270h-1270v1270z" />
<glyph unicode="&#xfb01;" horiz-adv-x="714" d="M250 0h-170v1118h-62v150h62v176q0 252 199 252q53 0 94 -13v-145q-10 4 -41 4q-82 0 -82 -102v-172h119v-150h-119v-1118zM639 1430h-170v256h170v-256zM639 0h-170v1268h170v-1268z" />
<glyph unicode="&#xfb02;" horiz-adv-x="708" d="M250 0h-170v1118h-62v150h62v176q0 252 199 252q53 0 94 -13v-145q-10 4 -41 4q-82 0 -82 -102v-172h119v-150h-119v-1118zM635 0h-170v1686h170v-1686z" />
<glyph unicode="&#xfb03;" horiz-adv-x="1105" d="M1030 1430h-170v256h170v-256zM1030 0h-170v1268h170v-1268zM641 0h-170v1118h-62v150h62v176q0 252 199 252q53 0 94 -13v-145q-10 4 -41 4q-82 0 -82 -102v-172h119v-150h-119v-1118zM250 0h-170v1118h-62v150h62v176q0 252 199 252q53 0 94 -13v-145q-10 4 -41 4 q-82 0 -82 -102v-172h119v-150h-119v-1118z" />
<glyph unicode="&#xfb04;" horiz-adv-x="1099" d="M1026 0h-170v1686h170v-1686zM641 0h-170v1118h-62v150h62v176q0 252 199 252q53 0 94 -13v-145q-10 4 -41 4q-82 0 -82 -102v-172h119v-150h-119v-1118zM250 0h-170v1118h-62v150h62v176q0 252 199 252q53 0 94 -13v-145q-10 4 -41 4q-82 0 -82 -102v-172h119v-150h-119 v-1118z" />
</font>
</defs>
</svg>
